<?xml version="1.0" encoding="utf-8"?>
<!-- Generator: Adobe Illustrator 21.0.0, SVG Export Plug-In . SVG Version: 6.00 Build 0)  -->
<svg version="1.1" id="Laag_1" xmlns="http://www.w3.org/2000/svg" xmlns:xlink="http://www.w3.org/1999/xlink" x="0px" y="0px"
	 viewBox="0 0 1920 1080" style="enable-background:new 0 0 1920 1080;" xml:space="preserve">
<style type="text/css">
	.st0{fill:none;stroke:#000000;stroke-linecap:round;stroke-miterlimit:10;}
</style>
<g id="XMLID_3_">
	<g>
		<polygon points="255.8,264 255.8,280.3 269.9,280.3 269.9,239.6 279.2,205.5 289.7,240.1 289.7,281 299.8,281 299.8,301.3 
			296.3,301.3 296.3,416.4 300,416.4 300,436 296.3,436 296.3,543 303.6,600.2 303.6,699.8 309.9,699.8 309.9,716.9 320.7,716.9 
			334.9,748.5 339.8,748.5 349.8,713.9 358.2,748.5 477.4,748.5 477.4,581.5 480.3,581.5 480.3,551.3 476,551.3 476,545.8 
			471.8,545.8 471.8,540.1 476.3,540.1 476.3,492 480.3,492 480.3,368.3 497.9,309.6 504.4,324.4 510.8,304.9 521.9,328.2 
			521.9,304.2 527.6,304.2 527.6,286.6 532.4,286.6 532.4,268.8 537.8,262 537.8,248.2 533,248.2 533,222.2 537.8,222.2 
			537.8,191.1 550.2,178.8 557,126.7 563.9,178.8 576.2,191.1 576.2,222.2 581,222.2 581,248.2 576.2,248.2 576.2,262 581.6,268.8 
			581.6,286.6 586.4,286.6 586.4,304.2 592.1,304.2 592.1,328.2 603.2,304.9 609.7,324.4 616.1,309.6 633.7,368.3 633.7,492 
			637.7,492 637.7,540.1 642.2,540.1 642.2,545.8 638,545.8 638,551.3 633.7,551.3 633.7,581.5 636.6,581.5 636.6,748.5 
			636.6,760.7 687.7,760.7 687.7,718.2 723.5,718.2 723.5,708.2 743.1,708.2 743.1,760.7 763.2,760.7 763.2,753.5 786.2,753.5 
			786.2,742.7 793.1,742.7 793.1,753.4 822,753.4 822,758 836.9,758 836.9,750.9 840.4,750.9 840.4,760.7 851.5,760.7 851.5,750.9 
			861.5,750.9 861.5,760.7 865.1,760.7 865.1,763.4 880.7,763.4 880.7,754.4 888.8,754.4 888.8,742.9 893.8,742.9 893.8,754 
			906.5,754 906.5,747.8 910.6,747.8 910.6,743.8 918.8,743.8 918.8,752.8 925.3,752.8 925.3,760.1 940.9,760.1 940.9,749.7 
			949.1,749.7 949.1,757.4 952,757.4 952,753.7 1031.4,753.7 1044.3,740.7 1044.3,733.7 1064,714 1094.4,645.5 1130.2,644.8 
			1130.2,641.2 1124.3,641.2 1124.3,634.9 1130.2,634.9 1144.8,583.3 1166.8,636.5 1179.4,608.5 1190.4,634.5 1196,634.5 
			1207.6,593.2 1207.6,394 1199.2,394 1199.2,386.4 1207.6,386.4 1218.8,353.6 1240.2,391.3 1297.4,308.6 1354.5,391.3 1376,353.6 
			1387.3,386.5 1395.6,386.5 1395.6,394 1387.3,394 1387.3,594.8 1398.9,634.6 1404.4,634.6 1415.4,608.6 1428,636.5 1450,583.4 
			1464.6,634.9 1470.5,634.9 1470.5,641.3 1464.8,641.3 1464.8,676.5 1509.2,676.5 1518.7,658.3 1518.7,626.9 1527.5,609.3 
			1536.1,626.3 1536.1,657.9 1545.8,675.8 1557.4,675.8 1570.2,651.5 1588.7,684.4 1594.2,684.4 1594.2,675.5 1589.9,675.5 
			1608.5,609.9 1629.8,675.2 1625.8,675.2 1625.8,732.6 1635.4,732.6 1635.4,694.1 1678.1,694.1 1678.1,732.6 1687.1,732.6 
			1687.1,718.9 1692.3,718.9 1692.3,711.4 1700.2,711.4 1700.2,722.9 1723.2,722.9 1723.2,635.1 1720,635.1 1720,576.8 
			1715.2,576.8 1715.2,570.5 1705.4,570.5 1705.4,566.1 1717.5,566.1 1717.5,497.9 1730.5,497.9 1733.5,465.3 1735.9,465.3 
			1738.8,445 1735.4,445 1735.4,440.2 1738.8,440.2 1741.2,410.9 1744.1,410.9 1749.2,381.7 1754.2,411 1757.1,411 1759.6,440.3 
			1763,440.3 1763,445.1 1759.6,445.1 1762.5,465.4 1764.9,465.4 1767.8,497.9 1780.9,497.9 1780.9,566.1 1793,566.1 1793,570.6 
			1783.1,570.6 1783.1,576.9 1778.4,576.9 1778.4,635.2 1775.2,635.2 1775.2,701.6 1831.9,701.6 1835.5,663.1 1839.9,701.2 
			1847.9,701.2 1847.9,643.2 1858.2,643.2 1858.2,661.9 1863.5,661.9 1863.5,681.7 1920,681.7 1920,1079.8 0.5,1079.8 0.5,593.3 
			109.2,593.3 109.2,563.7 126.3,543 126.3,436 122.5,436 122.5,416.4 126.3,416.4 126.3,301.3 122.9,301.3 122.9,281 132.8,281 
			132.8,240.1 143.4,205.5 152.7,239.6 152.7,280.3 166.9,280.3 166.9,264 162.6,264 162.6,258.4 167.9,258.4 167.9,247.5 
			170.5,247.5 170.5,240 181.7,240 191.3,202.9 202.6,239.3 211.3,239.3 220,239.3 231.3,202.9 240.9,240.1 252.1,240.1 
			252.1,247.6 254.7,247.6 254.7,258.5 260,258.5 260,264 		"/>
		<path d="M557.1,85c0,0-0.1-5.2,3.6-3.8c3.7,1.5,0,5.7,0,5.7s-1.3,8.1-3.7,8.5c-1.3,0.3-2.9-1.7-4.9-8.5l-4.1-3.6L557.1,85z"/>
	</g>
	<g>
		<polyline class="st0" points="143.4,177.8 143.4,187 143.4,205.5 132.8,240.1 132.8,281 122.9,281 122.9,301.3 126.3,301.3 
			126.3,416.4 122.5,416.4 122.5,436 126.3,436 126.3,543 109.2,563.7 109.2,593.3 0.5,593.3 0.5,1079.8 1920,1079.8 1920,681.7 
			1863.5,681.7 1863.5,661.9 1858.2,661.9 1858.2,643.2 1847.9,643.2 1847.9,701.2 1839.9,701.2 1835.5,663.1 1831.9,701.6 
			1775.2,701.6 1775.2,635.2 1778.4,635.2 1778.4,576.9 1783.1,576.9 1783.1,570.6 1793,570.6 1793,566.1 1780.9,566.1 
			1780.9,497.9 1767.8,497.9 1764.9,465.4 1762.5,465.4 1759.6,445.1 1763,445.1 1763,440.3 1759.6,440.3 1757.1,411 1754.2,411 
			1749.2,381.7 1744.1,410.9 1741.2,410.9 1738.8,440.2 1735.4,440.2 1735.4,445 1738.8,445 1735.9,465.3 1733.5,465.3 
			1730.5,497.9 1717.5,497.9 1717.5,566.1 1705.4,566.1 1705.4,570.5 1715.2,570.5 1715.2,576.8 1720,576.8 1720,635.1 
			1723.2,635.1 1723.2,722.9 1700.2,722.9 1700.2,711.4 1692.3,711.4 1692.3,718.9 1687.1,718.9 1687.1,732.6 1678.1,732.6 
			1678.1,694.1 1635.4,694.1 1635.4,732.6 1625.8,732.6 1625.8,675.2 1629.8,675.2 1608.5,609.9 1589.9,675.5 1594.2,675.5 
			1594.2,684.4 1588.7,684.4 1570.2,651.5 1557.4,675.8 1545.8,675.8 1536.1,657.9 1536.1,626.3 1527.5,609.3 1518.7,626.9 
			1518.7,658.3 1509.2,676.5 1464.8,676.5 1464.8,641.3 1470.5,641.3 1470.5,634.9 1464.6,634.9 1450,583.4 1428,636.5 
			1415.4,608.6 1404.4,634.6 1398.9,634.6 1387.3,594.8 1387.3,394 1395.6,394 1395.6,386.5 1387.3,386.5 1376,353.6 1354.5,391.3 
			1297.4,308.6 1240.2,391.3 1218.8,353.6 1207.6,386.4 1199.2,386.4 1199.2,394 1207.6,394 1207.6,593.2 1196,634.5 1190.4,634.5 
			1179.4,608.5 1166.8,636.5 1144.8,583.3 1130.2,634.9 1124.3,634.9 1124.3,641.2 1130.2,641.2 1130.2,644.8 1094.4,645.5 
			1064,714 1044.3,733.7 1044.3,740.7 1031.4,753.7 952,753.7 952,757.4 949.1,757.4 949.1,749.7 940.9,749.7 940.9,760.1 
			925.3,760.1 925.3,752.8 918.8,752.8 918.8,743.8 910.6,743.8 910.6,747.8 906.5,747.8 906.5,754 893.8,754 893.8,742.9 
			888.8,742.9 888.8,754.4 880.7,754.4 880.7,763.4 865.1,763.4 865.1,760.7 861.5,760.7 861.5,750.9 851.5,750.9 851.5,760.7 
			840.4,760.7 840.4,750.9 836.9,750.9 836.9,758 822,758 822,753.4 793.1,753.4 793.1,742.7 786.2,742.7 786.2,753.5 763.2,753.5 
			763.2,760.7 743.1,760.7 743.1,708.2 723.5,708.2 723.5,718.2 687.7,718.2 687.7,760.7 636.6,760.7 636.6,748.5 636.6,581.5 
			633.7,581.5 633.7,551.3 638,551.3 638,545.8 642.2,545.8 642.2,540.1 637.7,540.1 637.7,492 633.7,492 633.7,368.3 616.1,309.6 
			609.7,324.4 603.2,304.9 592.1,328.2 592.1,304.2 586.4,304.2 586.4,286.6 581.6,286.6 581.6,268.8 576.2,262 576.2,248.2 
			581,248.2 581,222.2 576.2,222.2 576.2,191.1 563.9,178.8 557,126.7 550.2,178.8 537.8,191.1 537.8,222.2 533,222.2 533,248.2 
			537.8,248.2 537.8,262 532.4,268.8 532.4,286.6 527.6,286.6 527.6,304.2 521.9,304.2 521.9,328.2 510.8,304.9 504.4,324.4 
			497.9,309.6 480.3,368.3 480.3,492 476.3,492 476.3,540.1 471.8,540.1 471.8,545.8 476,545.8 476,551.3 480.3,551.3 480.3,581.5 
			477.4,581.5 477.4,748.5 358.2,748.5 349.8,713.9 339.8,748.5 334.9,748.5 320.7,716.9 309.9,716.9 309.9,699.8 303.6,699.8 
			303.6,600.2 296.3,543 296.3,436 300,436 300,416.4 296.3,416.4 296.3,301.3 299.8,301.3 299.8,281 289.7,281 289.7,240.1 
			279.2,205.5 279.2,187 279.2,177.8 		"/>
		<polyline class="st0" points="139.1,187 143.4,187 148.3,187 		"/>
		<polyline class="st0" points="143.4,205.5 152.7,239.6 152.7,280.3 166.9,280.3 166.9,264 162.6,264 162.6,258.4 167.9,258.4 
			167.9,247.5 170.5,247.5 170.5,240 181.7,240 191.3,202.9 191.3,177.8 191.3,167.7 		"/>
		<polyline class="st0" points="186.1,177.8 191.3,177.8 196.6,177.8 		"/>
		<polyline class="st0" points="283.5,187 279.2,187 274.3,187 		"/>
		<polyline class="st0" points="279.2,205.5 269.9,239.6 269.9,280.3 255.8,280.3 255.8,264 260,264 260,258.5 254.7,258.5 
			254.7,247.6 252.1,247.6 252.1,240.1 240.9,240.1 231.3,202.9 231.3,177.8 231.3,167.8 		"/>
		<polyline class="st0" points="236.6,177.8 231.3,177.8 226.1,177.8 		"/>
		<polyline class="st0" points="231.3,202.9 220,239.3 211.3,239.3 202.6,239.3 191.3,202.9 		"/>
		<line class="st0" x1="211.3" y1="239.3" x2="211.3" y2="131.9"/>
		<polyline class="st0" points="349.8,713.9 349.8,698.8 349.8,694.1 		"/>
		<polyline class="st0" points="345.6,698.8 349.8,698.8 354.1,698.8 		"/>
		<polyline class="st0" points="497.9,309.6 497.9,290.5 497.9,281.6 		"/>
		<polyline class="st0" points="494.7,290.5 497.9,290.5 501.4,290.5 		"/>
		<polyline class="st0" points="510.8,304.9 510.8,278.8 510.8,270.8 		"/>
		<polyline class="st0" points="506.8,278.8 510.8,278.8 515.4,278.8 		"/>
		<polyline class="st0" points="603.2,304.9 603.2,290.5 603.2,278.8 603.2,270.8 		"/>
		<polyline class="st0" points="598,278.8 603.2,278.8 609,278.8 		"/>
		<polyline class="st0" points="616.1,309.6 616.1,290.5 616.1,281.6 		"/>
		<polyline class="st0" points="610.8,290.5 616.1,290.5 621.4,290.5 		"/>
		<polyline class="st0" points="557,126.7 557,101.2 557,95.4 		"/>
		<polyline class="st0" points="553.5,101.2 557,101.2 560.7,101.2 		"/>
		<path class="st0" d="M560.7,86.9c0,0-1.3,8.1-3.7,8.5c-1.3,0.3-2.9-1.7-4.9-8.5l-4.1-3.6l9.1,1.6c0,0-0.1-5.2,3.6-3.8
			C564.3,82.7,560.7,86.9,560.7,86.9z"/>
		<polyline class="st0" points="1218.8,353.6 1218.8,341.1 1218.8,335 		"/>
		<polyline class="st0" points="1215.4,341.1 1218.8,341.1 1222.9,341.1 		"/>
		<polyline class="st0" points="1376,353.6 1376,341.1 1376,335 		"/>
		<polyline class="st0" points="1371.5,341.1 1376,341.1 1381.1,341.1 		"/>
		<polyline class="st0" points="1297.4,308.6 1297.4,278.1 1297.4,258.9 		"/>
		<polyline class="st0" points="1290.5,278.1 1297.4,278.1 1304.5,278.1 		"/>
		<polyline class="st0" points="1144.8,583.3 1144.8,570.8 1144.8,564.9 		"/>
		<polyline class="st0" points="1140.7,570.8 1144.8,570.8 1149.2,570.8 		"/>
		<polyline class="st0" points="1450,583.4 1450,568.2 1450,562 		"/>
		<polyline class="st0" points="1445.2,568.2 1450,568.2 1455.4,568.2 		"/>
		<polyline class="st0" points="1749.2,381.7 1749.2,362.6 1749.2,353.6 		"/>
		<polyline class="st0" points="1743.6,362.6 1749.2,362.6 1755.5,362.6 		"/>
		<polyline class="st0" points="1527.5,609.3 1527.5,597.5 1527.5,591.3 		"/>
		<polyline class="st0" points="1522.9,597.5 1527.5,597.5 1531.3,597.5 		"/>
		<polyline class="st0" points="1608.5,609.9 1608.5,597.5 1608.5,589.9 		"/>
		<polyline class="st0" points="1603.2,597.5 1608.5,597.5 1613.5,597.5 		"/>
	</g>
</g>
</svg>
