<?xml version="1.0" standalone="no"?>
<!DOCTYPE svg PUBLIC "-//W3C//DTD SVG 20010904//EN"
 "http://www.w3.org/TR/2001/REC-SVG-20010904/DTD/svg10.dtd">
<svg version="1.0" xmlns="http://www.w3.org/2000/svg"
 width="1984.000000pt" height="1984.000000pt" viewBox="0 0 1984.000000 1984.000000"
 preserveAspectRatio="xMidYMid meet">
<metadata>
Created by potrace 1.11, written by Peter Selinger 2001-2013
</metadata>
<g transform="translate(0.000000,1984.000000) scale(0.100000,-0.100000)"
fill="#000000" stroke="none">
<path d="M320 9920 l0 -9920 9600 0 9600 0 0 9920 0 9920 -9600 0 -9600 0 0
-9920z m16048 1848 l2 -1548 -6450 0 -6450 0 0 1543 c0 849 3 1547 7 1550 3 4
2905 6 6447 5 l6441 -3 3 -1547z"/>
<path d="M3720 11765 l0 -1305 6200 0 6200 0 0 1305 0 1305 -6200 0 -6200 0 0
-1305z m1022 536 c31 -12 77 -38 102 -57 51 -39 126 -128 126 -150 0 -7 -23
-29 -52 -48 l-51 -35 -35 49 c-67 96 -179 146 -307 138 -91 -6 -153 -35 -221
-103 -163 -162 -168 -467 -10 -644 11 -13 47 -41 79 -62 142 -92 311 -70 460
61 l47 42 0 84 0 84 -115 0 -115 0 0 55 0 55 180 0 180 0 0 -280 0 -280 -65 0
-65 0 0 71 0 71 -47 -43 c-96 -84 -224 -122 -353 -102 -201 31 -378 206 -435
428 -72 284 103 603 374 681 71 21 252 12 323 -15z m776 -218 l2 -243 300 0
300 0 2 243 3 242 70 0 70 0 3 -557 2 -558 -75 0 -75 0 0 250 0 250 -300 0
-300 0 -2 -182 c-1 -101 -1 -213 1 -250 l3 -68 -76 0 -76 0 0 560 0 561 73 -3
72 -3 3 -242z m1887 177 l0 -65 -297 -3 -298 -2 0 -175 0 -175 260 0 260 0 0
-60 0 -60 -260 0 -260 0 0 -190 0 -190 305 0 305 0 0 -65 0 -65 -380 0 -380 0
0 553 c0 305 3 557 7 560 4 4 171 6 372 5 l366 -3 0 -65z m451 37 c16 -18 171
-212 344 -430 l315 -396 3 424 2 425 75 0 75 0 0 -555 0 -555 -64 0 -64 0
-334 417 -333 417 -3 -417 -2 -417 -75 0 -75 0 0 553 c0 305 3 557 7 560 3 4
28 7 54 7 41 0 51 -4 75 -33z m1994 -37 l0 -70 -190 0 -190 0 0 -490 0 -490
-70 0 -70 0 0 490 0 490 -192 2 -193 3 -3 54 c-2 29 -1 60 2 67 4 12 84 14
456 14 l450 0 0 -70z m328 -473 l2 -537 345 0 c338 0 345 0 345 -20 0 -20 -7
-20 -365 -20 l-365 0 0 561 c0 528 1 560 18 557 16 -3 17 -38 20 -541z m1710
521 c3 -17 -18 -18 -342 -18 l-346 0 0 -245 0 -245 300 0 c293 0 300 0 300
-20 0 -20 -7 -20 -300 -20 l-300 0 0 -255 0 -255 350 0 c343 0 350 0 350 -20
0 -20 -7 -20 -365 -20 l-365 0 0 560 0 560 357 -2 c332 -3 358 -4 361 -20z
m618 -404 c139 -230 255 -419 259 -419 4 0 120 189 259 420 138 230 257 421
264 423 9 3 12 -113 12 -557 0 -491 -2 -561 -15 -561 -13 0 -15 66 -17 515
l-3 515 -243 -406 c-179 -298 -248 -404 -260 -402 -9 2 -119 175 -257 404
l-240 402 -3 -514 c-2 -448 -4 -514 -17 -514 -13 0 -15 70 -15 561 0 443 3
560 12 557 7 -3 126 -193 264 -424z m1848 -120 c130 -300 240 -552 243 -560 3
-9 -2 -14 -14 -14 -15 0 -36 40 -105 198 l-86 197 -289 3 -288 2 -86 -197
c-70 -161 -90 -199 -108 -201 l-21 -3 19 43 c10 24 112 257 226 518 114 261
216 494 226 518 10 23 24 42 32 42 8 0 105 -212 251 -546z m998 11 l423 -530
3 533 c2 464 4 532 17 532 13 0 15 -70 15 -560 0 -547 0 -560 -19 -560 -14 0
-144 156 -435 521 l-416 521 0 -521 c0 -514 0 -521 -20 -521 -20 0 -20 7 -20
553 0 305 3 557 7 561 4 3 10 5 14 4 4 -2 198 -241 431 -533z"/>
<path d="M13970 11968 c-73 -167 -135 -309 -137 -315 -4 -10 53 -13 266 -13
149 0 271 3 271 7 0 4 -55 133 -121 288 -67 154 -127 293 -134 308 -11 27 -18
14 -145 -275z"/>
</g>
</svg>
