<?xml version="1.0" encoding="utf-8"?>
<!-- Generator: Adobe Illustrator 20.0.0, SVG Export Plug-In . SVG Version: 6.00 Build 0)  -->
<svg version="1.1" xmlns="http://www.w3.org/2000/svg" xmlns:xlink="http://www.w3.org/1999/xlink" x="0px" y="0px"
	 viewBox="0 0 595.3 1098.5" style="enable-background:new 0 0 595.3 1098.5;" xml:space="preserve">
<style type="text/css">
	.st0{fill:#FFFFFF;stroke:#000000;stroke-miterlimit:10;}
	.st1{fill:#3C3C3B;}
	.st2{fill:none;stroke:#575756;stroke-width:3;stroke-miterlimit:10;}
	.st3{fill:#F18A94;}
	.st4{opacity:0.5;fill:none;stroke:#3C3C3B;stroke-width:2;stroke-miterlimit:10;}
	.st5{fill:#F4A7A6;}
	.st6{fill:#F6F6F6;}
	.st7{fill:none;stroke:#F6F6F6;stroke-width:3;stroke-miterlimit:10;}
	.st8{fill:none;stroke:#3C3C3B;stroke-width:3;stroke-miterlimit:10;}
	.st9{fill:#FFFFFF;}
	.st10{opacity:0.9;fill:#3C3C3B;}
	.st11{opacity:0.8;fill:#3C3C3B;}
	.st12{opacity:0.7;fill:#3C3C3B;}
	.st13{opacity:0.6;fill:#3C3C3B;}
</style>
<g id="Laag_1">
	<rect x="0.8" y="0" class="st1" width="595.3" height="148.8"/>
	<g>
		<g>
			<g>
				<path class="st6" d="M182.6,75.5h13.9V77h-4.2v13.6l-4.7-1.7c-1,0.7-2.3,1.2-3.9,1.6c-1.6,0.4-3.2,0.6-4.9,0.6
					c-1.7,0-3.5-0.4-5.5-1.1c-2-0.7-3.7-1.8-5.4-3.2c-1.6-1.4-2.9-3.3-3.9-5.6c-1-2.3-1.5-4.8-1.5-7.5c0-2.7,0.5-5.2,1.5-7.4
					c1-2.2,2.3-4,3.9-5.4c3.3-2.9,7.1-4.4,11.4-4.4c2.7,0,5.2,0.6,7.5,1.7l4.9-1l0.3,10.8h-1.5c-1.1-3.7-2.4-6.3-4-7.8
					s-4-2.2-7.3-2.2c-3.3,0-6,1.3-8,3.8c-2,2.5-3,6.5-3,12c0,10.4,3.7,15.6,11.2,15.6c1.6,0,3.1-0.3,4.6-1c1.5-0.7,2.8-1.6,3.8-2.8
					V77h-5V75.5z"/>
				<path class="st6" d="M209.3,89.2c0.6,0,0.9,0.1,1.1,0.3c0.2,0.2,0.3,0.6,0.3,1.1h-12.6v-1.4c1.6,0,2.7-0.2,3.3-0.6
					c0.6-0.4,0.9-1.3,0.9-2.8V55.7h-4.2v-1.4h8.4v17.9c0.7-1.9,1.9-3.4,3.5-4.4c1.6-1,3.4-1.5,5.4-1.5c2,0,3.6,0.8,5.1,2.3
					c1.4,1.6,2.1,3.8,2.1,6.7v13.9h2.8c0.6,0,0.9,0.1,1.1,0.3c0.2,0.2,0.3,0.6,0.3,1.1h-12.3v-1.4c1.6,0,2.7-0.2,3.2-0.6
					c0.5-0.4,0.8-1.3,0.8-2.8V75.4c0-2.1-0.5-3.7-1.5-4.8c-1-1.1-2.3-1.7-3.9-1.7c-1.6,0-3.1,0.7-4.4,2.2c-1.4,1.5-2,3.5-2,6.1v12.1
					H209.3z"/>
				<path class="st6" d="M240.2,91.2c-3.3,0-6.1-1.1-8.3-3.3c-2.3-2.2-3.4-5.1-3.4-8.7c0-3.6,1-6.7,3-9.2c2-2.5,4.8-3.7,8.6-3.7
					c2.9,0,5.3,0.7,7.2,2.2c2,1.5,2.9,3.3,2.9,5.4c0,2-0.9,3.3-2.8,3.9c-1.6,0.5-4.1,0.7-7.4,0.6l-6.7-0.1c0.1,3.8,0.8,6.6,2.2,8.5
					c1.4,1.9,3.3,2.8,5.7,2.8c1.6,0,3.1-0.4,4.4-1.3c1.3-0.8,2.3-2,3-3.6l1.4,0.5c-0.8,1.9-2,3.4-3.7,4.4
					C244.4,90.7,242.4,91.2,240.2,91.2z M245.7,73.2c0-1.5-0.5-2.8-1.5-3.9c-1-1.1-2.4-1.6-4.2-1.6c-1.8,0-3.4,0.8-4.7,2.3
					c-1.3,1.5-2,3.8-2.2,6.7l5.9,0.2c2.4,0.1,4.1-0.1,5.1-0.6C245.2,75.8,245.7,74.8,245.7,73.2z"/>
				<path class="st6" d="M262.9,89.2c0.6,0,0.9,0.1,1.1,0.3c0.2,0.2,0.3,0.6,0.3,1.1H252v-1.4c1.6,0,2.7-0.2,3.3-0.6
					c0.6-0.4,0.9-1.3,0.9-2.8V68.3H252v-1.4h8.1l0.2,5.6c0.8-2,2-3.5,3.5-4.6c1.6-1,3.3-1.6,5.2-1.6c1.9,0,3.6,0.8,5.1,2.4
					c1.5,1.6,2.2,3.8,2.2,6.6v13.9h2.8c0.6,0,0.9,0.1,1.1,0.3c0.2,0.2,0.3,0.6,0.3,1.1h-12.6v-1.4c1.6,0,2.7-0.2,3.3-0.6
					c0.6-0.4,0.9-1.3,0.9-2.8V74.8c0-2-0.5-3.5-1.5-4.5c-1-1-2.2-1.6-3.8-1.6s-3.1,0.8-4.4,2.3c-1.4,1.5-2.1,3.6-2.2,6.2v12.1H262.9
					z"/>
				<path class="st6" d="M280.6,68.3v-1.4h3.9v-5.3l4.2-1.2v6.5h8.7v1.4h-8.7v17c0,2.9,1,4.3,3.1,4.3c0.9,0,1.7-0.4,2.4-1.2
					c0.7-0.8,1.3-2.1,1.6-3.8l1.5,0.3c-0.8,4.3-3,6.4-6.4,6.4c-4.3,0-6.4-2.4-6.4-7.2V68.3H280.6z"/>
				<path class="st6" d="M310.6,89.2c0.6,0,0.9,0.1,1.1,0.3c0.2,0.2,0.3,0.6,0.3,1.1h-12.8v-1.4c1.6,0,2.7-0.2,3.3-0.6
					c0.6-0.4,0.9-1.3,0.9-2.8V55.7h-4.2v-1.4h8.4v34.9H310.6z"/>
				<path class="st6" d="M325.4,91.2c-3.3,0-6.1-1.1-8.3-3.3c-2.3-2.2-3.4-5.1-3.4-8.7c0-3.6,1-6.7,3-9.2c2-2.5,4.8-3.7,8.6-3.7
					c2.9,0,5.3,0.7,7.2,2.2c2,1.5,2.9,3.3,2.9,5.4c0,2-0.9,3.3-2.8,3.9c-1.6,0.5-4.1,0.7-7.4,0.6l-6.7-0.1c0.1,3.8,0.8,6.6,2.2,8.5
					c1.4,1.9,3.3,2.8,5.7,2.8c1.6,0,3.1-0.4,4.4-1.3c1.3-0.8,2.3-2,3-3.6l1.4,0.5c-0.8,1.9-2,3.4-3.7,4.4
					C329.6,90.7,327.6,91.2,325.4,91.2z M331,73.2c0-1.5-0.5-2.8-1.5-3.9c-1-1.1-2.4-1.6-4.2-1.6c-1.8,0-3.4,0.8-4.7,2.3
					c-1.3,1.5-2,3.8-2.2,6.7l5.9,0.2c2.4,0.1,4.1-0.1,5.1-0.6C330.4,75.8,331,74.8,331,73.2z"/>
				<path class="st6" d="M348.1,89.2c0.6,0,0.9,0.1,1.1,0.3c0.2,0.2,0.3,0.6,0.3,1.1h-12.3v-1.4c1.6,0,2.7-0.2,3.3-0.6
					c0.6-0.4,0.9-1.3,0.9-2.8V68.3h-4.2v-1.4h8.1l0.2,5.6c0.8-2,1.9-3.5,3.4-4.6c1.5-1,3-1.6,4.6-1.6c1.6,0,2.9,0.5,4.1,1.6
					c1.2,1.1,2,2.6,2.5,4.5c0.8-2,1.9-3.5,3.4-4.6c1.4-1,3.1-1.5,4.9-1.5c1.9,0,3.5,0.8,4.9,2.4c1.4,1.6,2.1,3.8,2.1,6.6v13.9h2.8
					c0.6,0,0.9,0.1,1.1,0.3c0.2,0.2,0.3,0.6,0.3,1.1h-12.3v-1.4c1.6,0,2.7-0.2,3.2-0.6c0.5-0.4,0.8-1.3,0.8-2.8V74.8
					c0-2-0.4-3.5-1.3-4.6c-0.9-1.1-2-1.6-3.3-1.6s-2.6,0.6-3.8,1.7c-1.2,1.1-2,2.6-2.4,4.6v14.3h2.5c0.6,0,0.9,0.1,1.1,0.3
					c0.2,0.2,0.3,0.6,0.3,1.1h-12v-1.4c1.6,0,2.7-0.2,3.2-0.6c0.5-0.4,0.8-1.3,0.8-2.8V74.8c0-2-0.4-3.5-1.2-4.5
					c-0.8-1-1.9-1.6-3.3-1.6c-1.4,0-2.7,0.8-4.1,2.3c-1.3,1.5-2,3.6-2.1,6.1v12.1H348.1z"/>
				<path class="st6" d="M393,91.2c-3.3,0-6.1-1.1-8.3-3.3c-2.3-2.2-3.4-5.1-3.4-8.7c0-3.6,1-6.7,3-9.2c2-2.5,4.8-3.7,8.6-3.7
					c2.9,0,5.3,0.7,7.2,2.2c2,1.5,2.9,3.3,2.9,5.4c0,2-0.9,3.3-2.8,3.9c-1.6,0.5-4.1,0.7-7.4,0.6l-6.7-0.1c0.1,3.8,0.8,6.6,2.2,8.5
					c1.4,1.9,3.3,2.8,5.7,2.8c1.6,0,3.1-0.4,4.4-1.3c1.3-0.8,2.3-2,3-3.6l1.4,0.5c-0.8,1.9-2,3.4-3.7,4.4
					C397.3,90.7,395.3,91.2,393,91.2z M398.6,73.2c0-1.5-0.5-2.8-1.5-3.9c-1-1.1-2.4-1.6-4.2-1.6c-1.8,0-3.4,0.8-4.7,2.3
					c-1.3,1.5-2,3.8-2.2,6.7l5.9,0.2c2.4,0.1,4.1-0.1,5.1-0.6C398.1,75.8,398.6,74.8,398.6,73.2z"/>
				<path class="st6" d="M415.8,89.2c0.6,0,0.9,0.1,1.1,0.3c0.2,0.2,0.3,0.6,0.3,1.1h-12.3v-1.4c1.6,0,2.7-0.2,3.3-0.6
					c0.6-0.4,0.9-1.3,0.9-2.8V68.3h-4.2v-1.4h8.1l0.2,5.6c0.8-2,2-3.5,3.5-4.6c1.6-1,3.3-1.6,5.2-1.6c1.9,0,3.6,0.8,5.1,2.4
					c1.5,1.6,2.2,3.8,2.2,6.6v13.9h2.8c0.6,0,0.9,0.1,1.1,0.3c0.2,0.2,0.3,0.6,0.3,1.1H421v-1.4c1.6,0,2.7-0.2,3.3-0.6
					c0.6-0.4,0.9-1.3,0.9-2.8V74.8c0-2-0.5-3.5-1.5-4.5c-1-1-2.2-1.6-3.8-1.6s-3.1,0.8-4.4,2.3c-1.4,1.5-2.1,3.6-2.2,6.2v12.1H415.8
					z"/>
			</g>
		</g>
		<rect x="143.3" y="39.4" class="st7" width="309.5" height="69.8"/>
	</g>
</g>
<g id="Laag_4">
</g>
<g id="Laag_3">
</g>
<g id="Laag_2">
	<g>
		<rect y="148.5" class="st10" width="297.4" height="316.4"/>
		<g>
			<path class="st9" d="M49.9,331l10.4-48.6h6.5L77.2,331h-6.4l-2.2-12.2h-9.9L56.4,331H49.9z M59.6,313.9h8.1L63.6,292L59.6,313.9z
				"/>
			<path class="st9" d="M94.3,331.5c-2,0-3.8-0.3-5.3-0.8s-2.8-1.3-3.7-2.2s-1.8-2.1-2.4-3.5c-0.6-1.4-1-2.9-1.3-4.4
				c-0.2-1.5-0.4-3.3-0.4-5.2v-17.2c0-2.1,0.1-3.9,0.4-5.5c0.2-1.6,0.7-3.1,1.3-4.5c0.6-1.4,1.4-2.5,2.4-3.4c1-0.9,2.2-1.6,3.7-2.1
				c1.5-0.5,3.3-0.8,5.3-0.8c4.4,0,7.5,1.2,9.4,3.5c1.9,2.4,2.8,5.8,2.8,10.4v3.9h-6.4v-3.4c0-0.7,0-1.3,0-1.7c0-0.4,0-0.9-0.1-1.6
				c0-0.6-0.1-1.1-0.2-1.5s-0.2-0.8-0.3-1.2s-0.3-0.8-0.5-1.1s-0.4-0.5-0.7-0.8c-0.3-0.3-0.6-0.5-1-0.7s-0.8-0.3-1.3-0.4
				c-0.5-0.1-1.1-0.1-1.7-0.1c-0.9,0-1.8,0.1-2.5,0.3s-1.3,0.5-1.7,1s-0.8,0.9-1.1,1.5s-0.5,1.2-0.6,2c-0.1,0.8-0.2,1.6-0.3,2.4
				c0,0.8-0.1,1.7-0.1,2.9v19.2c0,3.7,0.5,6.2,1.4,7.6c0.9,1.4,2.5,2.1,4.9,2.1c0.9,0,1.7-0.1,2.3-0.3c0.7-0.2,1.2-0.5,1.6-1
				c0.4-0.4,0.8-0.9,1-1.4c0.3-0.5,0.4-1.1,0.6-2c0.1-0.8,0.2-1.6,0.2-2.3s0-1.6,0-2.8v-3.6h6.4v3.6c0,1.9-0.1,3.5-0.4,5
				s-0.6,2.8-1.2,4.1c-0.6,1.3-1.3,2.3-2.2,3.2c-0.9,0.8-2.1,1.5-3.5,2S96.1,331.5,94.3,331.5z"/>
			<path class="st9" d="M118,331v-43.6h-8.9v-5h24.2v5h-8.6V331H118z"/>
			<path class="st9" d="M137.4,331v-48.6h6.7V331H137.4z"/>
			<path class="st9" d="M160.3,331l-10.8-48.6h6.3l7.7,35.8l7.3-35.8h6.2L166.2,331H160.3z"/>
			<path class="st9" d="M182.5,331v-48.6h6.7V331H182.5z"/>
			<path class="st9" d="M202.1,331v-43.6h-8.9v-5h24.2v5h-8.6V331H202.1z"/>
			<path class="st9" d="M228.5,331v-17.1L218,282.4h6.3l7.4,23.4l7.3-23.4h6.4L235,313.9V331H228.5z"/>
		</g>
	</g>
	<g>
		<rect x="297.9" y="148.8" class="st11" width="297.4" height="316.4"/>
		<g>
			<path class="st9" d="M390.1,331.2v-48.6h18.8v4.9h-12v16.1h9.3v4.8h-9.3v22.7H390.1z"/>
			<path class="st9" d="M425.9,331.8c-2.4,0-4.5-0.4-6.2-1.1s-3.1-1.8-4.1-3.2s-1.8-3-2.2-4.9s-0.7-4.1-0.7-6.6v-18.4
				c0-5.1,1-8.9,3.1-11.5s5.5-3.9,10.2-3.9c4.7,0,8.1,1.3,10.2,3.9c2.1,2.6,3.1,6.5,3.1,11.5V316c0,5.1-1,8.9-3.1,11.7
				C433.9,330.4,430.6,331.8,425.9,331.8z M422.6,325.8c0.9,0.4,2,0.6,3.3,0.6s2.4-0.2,3.3-0.6s1.5-1,2-1.9c0.4-0.8,0.8-1.8,0.9-2.8
				c0.2-1,0.2-2.3,0.2-3.7v-21.3c0-1.5-0.1-2.7-0.2-3.7c-0.2-1-0.5-1.9-0.9-2.7s-1.1-1.4-2-1.8s-2-0.6-3.3-0.6s-2.4,0.2-3.3,0.6
				s-1.5,1-2,1.8s-0.8,1.7-0.9,2.7c-0.2,1-0.2,2.2-0.2,3.7v21.3c0,1.5,0.1,2.7,0.2,3.7c0.2,1,0.5,1.9,0.9,2.8
				C421.1,324.8,421.7,325.4,422.6,325.8z"/>
			<path class="st9" d="M458.2,331.8c-2.4,0-4.5-0.4-6.2-1.1s-3.1-1.8-4.1-3.2s-1.8-3-2.2-4.9s-0.7-4.1-0.7-6.6v-18.4
				c0-5.1,1-8.9,3.1-11.5s5.5-3.9,10.2-3.9c4.7,0,8.1,1.3,10.2,3.9c2.1,2.6,3.1,6.5,3.1,11.5V316c0,5.1-1,8.9-3.1,11.7
				C466.3,330.4,462.9,331.8,458.2,331.8z M454.9,325.8c0.9,0.4,2,0.6,3.3,0.6s2.4-0.2,3.3-0.6s1.5-1,2-1.9c0.4-0.8,0.8-1.8,0.9-2.8
				c0.2-1,0.2-2.3,0.2-3.7v-21.3c0-1.5-0.1-2.7-0.2-3.7c-0.2-1-0.5-1.9-0.9-2.7s-1.1-1.4-2-1.8s-2-0.6-3.3-0.6s-2.4,0.2-3.3,0.6
				s-1.5,1-2,1.8s-0.8,1.7-0.9,2.7c-0.2,1-0.2,2.2-0.2,3.7v21.3c0,1.5,0.1,2.7,0.2,3.7c0.2,1,0.5,1.9,0.9,2.8
				C453.4,324.8,454.1,325.4,454.9,325.8z"/>
			<path class="st9" d="M478.2,331.2v-48.6h10.5c5.3,0,9,1.2,11.1,3.6c2.2,2.4,3.2,6.1,3.2,11.2v17.9c0,5.3-1.1,9.3-3.2,11.9
				c-2.1,2.6-5.7,3.9-10.6,3.9H478.2z M485,326.4h3.8c1,0,1.9-0.1,2.7-0.3s1.5-0.4,2-0.7c0.5-0.3,1-0.7,1.3-1.4
				c0.4-0.6,0.6-1.2,0.8-1.7s0.3-1.3,0.4-2.3c0.1-1,0.2-1.9,0.2-2.7s0-1.8,0-3.2v-15.8c0-1.2,0-2.2-0.1-3c0-0.8-0.1-1.6-0.2-2.4
				c-0.1-0.8-0.3-1.5-0.5-2c-0.2-0.5-0.5-1-0.9-1.5c-0.4-0.5-0.8-0.8-1.4-1.1c-0.5-0.2-1.2-0.4-1.9-0.6c-0.7-0.1-1.6-0.2-2.6-0.2
				H485V326.4z"/>
		</g>
	</g>
	<g>
		<rect y="465" class="st12" width="297.4" height="316.4"/>
		<g>
			<path class="st9" d="M79,648c-4.4,0-7.6-1.4-9.6-4.2s-2.9-6.9-2.9-12.3v-16.3c0-2.2,0.1-4.2,0.4-5.9c0.2-1.7,0.7-3.2,1.3-4.7
				c0.6-1.4,1.4-2.6,2.4-3.5c1-0.9,2.2-1.6,3.7-2.1s3.3-0.7,5.3-0.7c4.5,0,7.7,1.1,9.7,3.4s3,5.9,3,10.8v1.8h-6.4v-1.5
				c0-1.4,0-2.5-0.1-3.4c-0.1-0.9-0.2-1.7-0.5-2.5c-0.2-0.8-0.6-1.4-1.1-1.9s-1.1-0.8-1.8-1c-0.7-0.3-1.7-0.4-2.8-0.4
				c-0.8,0-1.6,0.1-2.2,0.3c-0.6,0.2-1.2,0.4-1.6,0.7c-0.4,0.3-0.8,0.7-1.1,1.3c-0.3,0.5-0.5,1.1-0.7,1.6c-0.2,0.5-0.3,1.2-0.4,2
				c-0.1,0.8-0.2,1.5-0.2,2.2c0,0.7,0,1.5,0,2.5v18c0,3.7,0.4,6.4,1.3,8c0.9,1.6,2.6,2.4,5.2,2.4s4.3-0.9,5.2-2.6s1.4-4.6,1.4-8.5
				v-3.4h-6.2v-4.8h12.3v24.1h-4.3l-0.6-5.6C86.2,646,83.3,648,79,648z"/>
			<path class="st9" d="M111.9,648c-2.4,0-4.5-0.4-6.2-1.1s-3.1-1.8-4.1-3.2s-1.8-3-2.2-4.9s-0.7-4.1-0.7-6.6v-18.4
				c0-5.1,1-8.9,3.1-11.5s5.5-3.9,10.2-3.9c4.7,0,8.1,1.3,10.2,3.9c2.1,2.6,3.1,6.5,3.1,11.5v18.4c0,5.1-1,8.9-3.1,11.7
				C120,646.6,116.6,648,111.9,648z M108.6,642.1c0.9,0.4,2,0.6,3.3,0.6s2.4-0.2,3.3-0.6s1.5-1,2-1.9c0.4-0.8,0.8-1.8,0.9-2.8
				c0.2-1,0.2-2.3,0.2-3.7v-21.3c0-1.5-0.1-2.7-0.2-3.7c-0.2-1-0.5-1.9-0.9-2.7s-1.1-1.4-2-1.8s-2-0.6-3.3-0.6s-2.4,0.2-3.3,0.6
				s-1.5,1-2,1.8s-0.8,1.7-0.9,2.7c-0.2,1-0.2,2.2-0.2,3.7v21.3c0,1.5,0.1,2.7,0.2,3.7c0.2,1,0.5,1.9,0.9,2.8
				C107.1,641,107.7,641.7,108.6,642.1z"/>
			<path class="st9" d="M158,648c-2.4,0-4.5-0.4-6.2-1.1s-3.1-1.8-4.1-3.2s-1.8-3-2.2-4.9s-0.7-4.1-0.7-6.6v-18.4
				c0-5.1,1-8.9,3.1-11.5s5.5-3.9,10.2-3.9c4.7,0,8.1,1.3,10.2,3.9c2.1,2.6,3.1,6.5,3.1,11.5v18.4c0,5.1-1,8.9-3.1,11.7
				C166,646.6,162.6,648,158,648z M154.7,642.1c0.9,0.4,2,0.6,3.3,0.6s2.4-0.2,3.3-0.6s1.5-1,2-1.9c0.4-0.8,0.8-1.8,0.9-2.8
				c0.2-1,0.2-2.3,0.2-3.7v-21.3c0-1.5-0.1-2.7-0.2-3.7c-0.2-1-0.5-1.9-0.9-2.7s-1.1-1.4-2-1.8s-2-0.6-3.3-0.6s-2.4,0.2-3.3,0.6
				s-1.5,1-2,1.8s-0.8,1.7-0.9,2.7c-0.2,1-0.2,2.2-0.2,3.7v21.3c0,1.5,0.1,2.7,0.2,3.7c0.2,1,0.5,1.9,0.9,2.8
				C153.1,641,153.8,641.7,154.7,642.1z"/>
			<path class="st9" d="M195.8,647.2c-1.5,0.5-3.3,0.8-5.4,0.8s-3.9-0.3-5.4-0.8s-2.8-1.3-3.7-2.2c-1-0.9-1.7-2.1-2.3-3.6
				c-0.6-1.5-1-3-1.2-4.6c-0.2-1.6-0.3-3.5-0.3-5.7v-32.2h6.4v32.5c0,1.4,0,2.6,0.1,3.6c0.1,1,0.3,2,0.5,3.1s0.6,1.9,1.1,2.5
				c0.5,0.6,1.1,1.1,1.9,1.5c0.8,0.4,1.8,0.6,2.9,0.6s2.1-0.2,2.9-0.6c0.8-0.4,1.4-0.9,1.9-1.6c0.5-0.6,0.8-1.5,1.1-2.5
				c0.3-1,0.4-2,0.5-3c0.1-1,0.1-2.2,0.1-3.6v-32.5h6.4v32.2c0,2.2-0.1,4.1-0.3,5.7c-0.2,1.6-0.6,3.2-1.2,4.6
				c-0.6,1.5-1.3,2.6-2.3,3.6C198.6,645.9,197.4,646.6,195.8,647.2z"/>
			<path class="st9" d="M215.5,647.5v-43.6h-8.9v-5h24.2v5h-8.6v43.6H215.5z"/>
		</g>
	</g>
	<g>
		<rect y="782.1" class="st11" width="297.4" height="316.4"/>
		<g>
			<path class="st9" d="M62,964.5v-48.6h12c4.2,0,7.3,1.1,9.2,3.4c1.9,2.3,2.8,5.6,2.8,10c0,3.9-1,7-3.1,9.2c-2,2.2-5,3.3-8.9,3.3
				h-5.3v22.6H62z M68.8,937h3.1c3,0,5-0.5,6.1-1.6s1.7-3.1,1.7-6.1c0-1.2,0-2.2-0.1-3s-0.2-1.5-0.4-2.2s-0.5-1.2-0.8-1.6
				s-0.8-0.7-1.4-1c-0.6-0.3-1.3-0.5-2.1-0.6c-0.8-0.1-1.8-0.1-2.9-0.1h-3.2V937z"/>
			<path class="st9" d="M90.8,964.5v-48.6h9.8c4.9,0,8.5,1,10.8,3c2.3,2,3.4,5.3,3.4,9.8c0,6.3-2,10-6,11.3l6.9,24.4h-6.6l-6.4-22.8
				h-5.2v22.8H90.8z M97.6,936.9h2.5c2.9,0,5.1-0.6,6.3-1.7c1.3-1.2,1.9-3.3,1.9-6.3c0-2.9-0.5-5-1.6-6.2c-1.1-1.2-3.1-1.8-6.1-1.8
				h-3V936.9z"/>
			<path class="st9" d="M134.3,965c-2.4,0-4.5-0.4-6.2-1.1c-1.7-0.7-3.1-1.8-4.1-3.2s-1.8-3-2.2-4.9s-0.7-4.1-0.7-6.6v-18.4
				c0-5.1,1-8.9,3.1-11.5s5.5-3.9,10.2-3.9c4.7,0,8.1,1.3,10.2,3.9c2.1,2.6,3.1,6.5,3.1,11.5v18.4c0,5.1-1,8.9-3.1,11.7
				C142.4,963.7,139,965,134.3,965z M131,959.1c0.9,0.4,2,0.6,3.3,0.6s2.4-0.2,3.3-0.6s1.5-1,2-1.9c0.4-0.8,0.8-1.8,0.9-2.8
				c0.2-1,0.2-2.3,0.2-3.7v-21.3c0-1.5-0.1-2.7-0.2-3.7c-0.2-1-0.5-1.9-0.9-2.7s-1.1-1.4-2-1.8s-2-0.6-3.3-0.6s-2.4,0.2-3.3,0.6
				s-1.5,1-2,1.8s-0.8,1.7-0.9,2.7c-0.2,1-0.2,2.2-0.2,3.7v21.3c0,1.5,0.1,2.7,0.2,3.7c0.2,1,0.5,1.9,0.9,2.8
				C129.5,958.1,130.2,958.7,131,959.1z"/>
			<path class="st9" d="M154.3,964.5v-48.6h18.8v4.9h-12v16.1h9.3v4.8h-9.3v22.7H154.3z"/>
			<path class="st9" d="M178.1,964.5v-48.6h6.7v48.6H178.1z"/>
			<path class="st9" d="M192.6,964.5v-48.6h6.8v43.7h12.4v4.9H192.6z"/>
			<path class="st9" d="M216.4,964.5v-48.6h18.8v5h-12V937h9.8v4.8h-9.8v17.8h12.2v4.9H216.4z"/>
		</g>
	</g>
	<g>
		<rect x="297.9" y="782.1" class="st12" width="297.4" height="316.4"/>
		<g>
			<path class="st9" d="M360.3,964.5v-48.6h11.1c4.4,0,7.7,1,9.8,3c2.1,2,3.2,5,3.2,9.2c0,6.2-2.3,9.6-7,10.3c2.9,0.7,5,2.1,6.3,4.1
				c1.3,2,2,4.7,2,8.2c0,4.4-1,7.8-3.1,10.2c-2.1,2.4-5.2,3.7-9.4,3.7H360.3z M367.1,936.2h4c2.8,0,4.7-0.6,5.8-1.9
				c1.1-1.2,1.6-3.3,1.6-6.3c0-1-0.1-1.8-0.2-2.5c-0.1-0.7-0.3-1.3-0.5-1.8c-0.2-0.5-0.5-0.9-1-1.3c-0.4-0.3-0.9-0.6-1.3-0.8
				s-1.1-0.4-1.8-0.5c-0.8-0.1-1.5-0.2-2.2-0.2s-1.6,0-2.7,0h-1.6V936.2z M367.1,959.6h4.6c2.9,0,4.9-0.7,6-2.1s1.6-3.7,1.6-7
				c0-3.1-0.6-5.4-1.9-7c-1.3-1.5-3.4-2.3-6.3-2.3h-4V959.6z"/>
			<path class="st9" d="M409.7,964.2c-1.5,0.5-3.3,0.8-5.4,0.8s-3.9-0.3-5.4-0.8s-2.8-1.3-3.7-2.2c-1-0.9-1.7-2.1-2.3-3.6
				c-0.6-1.5-1-3-1.2-4.6c-0.2-1.6-0.3-3.5-0.3-5.7v-32.2h6.4v32.5c0,1.4,0,2.6,0.1,3.6c0.1,1,0.3,2,0.5,3.1s0.6,1.9,1.1,2.5
				c0.5,0.6,1.1,1.1,1.9,1.5c0.8,0.4,1.8,0.6,2.9,0.6s2.1-0.2,2.9-0.6c0.8-0.4,1.4-0.9,1.9-1.6c0.5-0.6,0.8-1.5,1.1-2.5
				c0.3-1,0.4-2,0.5-3c0.1-1,0.1-2.2,0.1-3.6v-32.5h6.4v32.2c0,2.2-0.1,4.1-0.3,5.7c-0.2,1.6-0.6,3.2-1.2,4.6
				c-0.6,1.5-1.3,2.6-2.3,3.6C412.4,962.9,411.2,963.7,409.7,964.2z"/>
			<path class="st9" d="M424.4,964.5v-48.6h10.5c5.3,0,9,1.2,11.1,3.6c2.2,2.4,3.2,6.1,3.2,11.2v17.9c0,5.3-1.1,9.3-3.2,11.9
				c-2.1,2.6-5.7,3.9-10.6,3.9H424.4z M431.2,959.6h3.8c1,0,1.9-0.1,2.7-0.3s1.5-0.4,2-0.7c0.5-0.3,1-0.7,1.3-1.4
				c0.4-0.6,0.6-1.2,0.8-1.7s0.3-1.3,0.4-2.3c0.1-1,0.2-1.9,0.2-2.7s0-1.8,0-3.2v-15.8c0-1.2,0-2.2-0.1-3c0-0.8-0.1-1.6-0.2-2.4
				c-0.1-0.8-0.3-1.5-0.5-2c-0.2-0.5-0.5-1-0.9-1.5c-0.4-0.5-0.8-0.8-1.4-1.1c-0.5-0.2-1.2-0.4-1.9-0.6c-0.7-0.1-1.6-0.2-2.6-0.2
				h-3.7V959.6z"/>
			<path class="st9" d="M467.6,965.1c-4.4,0-7.6-1.4-9.6-4.2s-2.9-6.9-2.9-12.3v-16.3c0-2.2,0.1-4.2,0.4-5.9
				c0.2-1.7,0.7-3.2,1.3-4.7c0.6-1.4,1.4-2.6,2.4-3.5c1-0.9,2.2-1.6,3.7-2.1s3.3-0.7,5.3-0.7c4.5,0,7.7,1.1,9.7,3.4s3,5.9,3,10.8
				v1.8h-6.4v-1.5c0-1.4,0-2.5-0.1-3.4c-0.1-0.9-0.2-1.7-0.5-2.5c-0.2-0.8-0.6-1.4-1.1-1.9s-1.1-0.8-1.8-1c-0.7-0.3-1.7-0.4-2.8-0.4
				c-0.8,0-1.6,0.1-2.2,0.3c-0.6,0.2-1.2,0.4-1.6,0.7c-0.4,0.3-0.8,0.7-1.1,1.3c-0.3,0.5-0.5,1.1-0.7,1.6c-0.2,0.5-0.3,1.2-0.4,2
				c-0.1,0.8-0.2,1.5-0.2,2.2c0,0.7,0,1.5,0,2.5v18c0,3.7,0.4,6.4,1.3,8c0.9,1.6,2.6,2.4,5.2,2.4s4.3-0.9,5.2-2.6s1.4-4.6,1.4-8.5
				v-3.4h-6.2v-4.8h12.3v24.1h-4.3l-0.6-5.6C474.7,963,471.8,965.1,467.6,965.1z"/>
			<path class="st9" d="M488.1,964.5v-48.6h18.8v5h-12V937h9.8v4.8h-9.8v17.8h12.2v4.9H488.1z"/>
			<path class="st9" d="M517.5,964.5v-43.6h-8.9v-5h24.2v5h-8.6v43.6H517.5z"/>
		</g>
	</g>
	<g>
		<rect x="297.9" y="465" class="st13" width="297.4" height="316.4"/>
		<g>
			<path class="st9" d="M337.7,647.5v-48.6h10.5c5.3,0,9,1.2,11.1,3.6c2.2,2.4,3.2,6.1,3.2,11.2v17.9c0,5.3-1.1,9.3-3.2,11.9
				c-2.1,2.6-5.7,3.9-10.6,3.9H337.7z M344.5,642.6h3.8c1,0,1.9-0.1,2.7-0.3s1.5-0.4,2-0.7c0.5-0.3,1-0.7,1.3-1.4
				c0.4-0.6,0.6-1.2,0.8-1.7s0.3-1.3,0.4-2.3c0.1-1,0.2-1.9,0.2-2.7s0-1.8,0-3.2v-15.8c0-1.2,0-2.2-0.1-3c0-0.8-0.1-1.6-0.2-2.4
				c-0.1-0.8-0.3-1.5-0.5-2c-0.2-0.5-0.5-1-0.9-1.5c-0.4-0.5-0.8-0.8-1.4-1.1c-0.5-0.2-1.2-0.4-1.9-0.6c-0.7-0.1-1.6-0.2-2.6-0.2
				h-3.7V642.6z"/>
			<path class="st9" d="M369.6,647.5v-48.6h6.7v48.6H369.6z"/>
			<path class="st9" d="M395.6,648c-4.1,0-7.2-1.3-9.3-3.8s-3.3-6-3.6-10.3l6-1.6c0.4,7,2.7,10.4,6.9,10.4c1.7,0,3.1-0.5,4-1.5
				s1.4-2.4,1.4-4.3c0-1-0.1-2-0.4-2.8c-0.2-0.9-0.6-1.7-1.2-2.5c-0.6-0.8-1.1-1.4-1.6-1.9c-0.5-0.5-1.2-1.2-2.1-2.1l-8.1-7.2
				c-1.6-1.5-2.8-3.1-3.6-4.7c-0.8-1.7-1.1-3.7-1.1-6c0-3.5,1-6.3,3.1-8.2s4.8-3,8.4-3c3.9-0.1,6.8,0.9,8.7,3
				c1.9,2.1,3.1,5.2,3.5,9.6l-5.7,1.6c-0.1-1.1-0.2-2-0.3-2.8s-0.4-1.6-0.7-2.5c-0.3-0.8-0.7-1.5-1.1-2c-0.4-0.5-1-0.9-1.8-1.2
				c-0.7-0.3-1.6-0.4-2.6-0.4c-3.6,0.3-5.4,2-5.4,5.3c0,1.4,0.2,2.6,0.7,3.6c0.5,1,1.3,2,2.5,3l8.2,7.2c2.1,1.9,3.8,4,5.1,6.2
				c1.3,2.2,1.9,4.7,1.9,7.4c0,3.6-1.1,6.4-3.2,8.5S399,648,395.6,648z"/>
			<path class="st9" d="M424.7,648c-2,0-3.8-0.3-5.3-0.8s-2.8-1.3-3.7-2.2s-1.8-2.1-2.4-3.5c-0.6-1.4-1-2.9-1.3-4.4
				c-0.2-1.5-0.4-3.3-0.4-5.2v-17.2c0-2.1,0.1-3.9,0.4-5.5c0.2-1.6,0.7-3.1,1.3-4.5c0.6-1.4,1.4-2.5,2.4-3.4c1-0.9,2.2-1.6,3.7-2.1
				c1.5-0.5,3.3-0.8,5.3-0.8c4.4,0,7.5,1.2,9.4,3.5c1.9,2.4,2.8,5.8,2.8,10.4v3.9h-6.4v-3.4c0-0.7,0-1.3,0-1.7c0-0.4,0-0.9-0.1-1.6
				c0-0.6-0.1-1.1-0.2-1.5s-0.2-0.8-0.3-1.2s-0.3-0.8-0.5-1.1s-0.4-0.5-0.7-0.8c-0.3-0.3-0.6-0.5-1-0.7s-0.8-0.3-1.3-0.4
				c-0.5-0.1-1.1-0.1-1.7-0.1c-0.9,0-1.8,0.1-2.5,0.3s-1.3,0.5-1.7,1s-0.8,0.9-1.1,1.5s-0.5,1.2-0.6,2c-0.1,0.8-0.2,1.6-0.3,2.4
				c0,0.8-0.1,1.7-0.1,2.9V633c0,3.7,0.5,6.2,1.4,7.6c0.9,1.4,2.5,2.1,4.9,2.1c0.9,0,1.7-0.1,2.3-0.3c0.7-0.2,1.2-0.5,1.6-1
				c0.4-0.4,0.8-0.9,1-1.4c0.3-0.5,0.4-1.1,0.6-2c0.1-0.8,0.2-1.6,0.2-2.3s0-1.6,0-2.8v-3.6h6.4v3.6c0,1.9-0.1,3.5-0.4,5
				s-0.6,2.8-1.2,4.1c-0.6,1.3-1.3,2.3-2.2,3.2c-0.9,0.8-2.1,1.5-3.5,2S426.6,648,424.7,648z"/>
			<path class="st9" d="M455.8,648c-2.4,0-4.5-0.4-6.2-1.1s-3.1-1.8-4.1-3.2s-1.8-3-2.2-4.9s-0.7-4.1-0.7-6.6v-18.4
				c0-5.1,1-8.9,3.1-11.5s5.5-3.9,10.2-3.9c4.7,0,8.1,1.3,10.2,3.9c2.1,2.6,3.1,6.5,3.1,11.5v18.4c0,5.1-1,8.9-3.1,11.7
				C463.9,646.7,460.5,648,455.8,648z M452.5,642.1c0.9,0.4,2,0.6,3.3,0.6s2.4-0.2,3.3-0.6s1.5-1,2-1.9c0.4-0.8,0.8-1.8,0.9-2.8
				c0.2-1,0.2-2.3,0.2-3.7v-21.3c0-1.5-0.1-2.7-0.2-3.7c-0.2-1-0.5-1.9-0.9-2.7s-1.1-1.4-2-1.8s-2-0.6-3.3-0.6s-2.4,0.2-3.3,0.6
				s-1.5,1-2,1.8s-0.8,1.7-0.9,2.7c-0.2,1-0.2,2.2-0.2,3.7v21.3c0,1.5,0.1,2.7,0.2,3.7c0.2,1,0.5,1.9,0.9,2.8
				C451,641.1,451.6,641.7,452.5,642.1z"/>
			<path class="st9" d="M484.2,647.5l-10.8-48.6h6.3l7.7,35.8l7.3-35.8h6.2l-10.8,48.6H484.2z"/>
			<path class="st9" d="M506.1,647.5v-48.6h18.8v5h-12V620h9.8v4.8h-9.8v17.8H525v4.9H506.1z"/>
			<path class="st9" d="M530.5,647.5v-48.6h9.8c4.9,0,8.5,1,10.8,3c2.3,2,3.4,5.3,3.4,9.8c0,6.3-2,10-6,11.3l6.9,24.4h-6.6
				l-6.4-22.8h-5.2v22.8H530.5z M537.3,619.8h2.5c2.9,0,5.1-0.6,6.3-1.7c1.3-1.2,1.9-3.3,1.9-6.3c0-2.9-0.5-5-1.6-6.2
				c-1.1-1.2-3.1-1.8-6.1-1.8h-3V619.8z"/>
		</g>
	</g>
</g>
</svg>
