<?xml version="1.0" encoding="utf-8"?>
<!-- Generator: Adobe Illustrator 20.0.0, SVG Export Plug-In . SVG Version: 6.00 Build 0)  -->
<svg version="1.1" id="Laag_1" xmlns="http://www.w3.org/2000/svg" xmlns:xlink="http://www.w3.org/1999/xlink" x="0px" y="0px"
	 viewBox="0 0 435 140" style="enable-background:new 0 0 435 140;" xml:space="preserve">
<style type="text/css">
	.st0{
		fill: transparent;
		transition: .7s
		}
	.st1{
		fill:none;
		stroke:white;
		stroke-width: 0;
		stroke-miterlimit:10;
		transition: .4s
		}
</style>
<g>
	<g>
		<g>
			<path class="st0" d="M72.8,71.5h17.4v1.8H85v17.1l-6-2.2c-1.3,0.8-2.9,1.5-4.9,2.1c-2,0.5-4,0.8-6.2,0.8c-2.1,0-4.4-0.5-6.9-1.4
				c-2.4-0.9-4.7-2.3-6.7-4.1s-3.7-4.1-4.9-7c-1.3-2.9-1.9-6-1.9-9.5c0-3.4,0.6-6.5,1.8-9.3c1.2-2.8,2.8-5,4.8-6.8
				c4.1-3.6,8.9-5.5,14.3-5.5c3.4,0,6.5,0.7,9.4,2.2l6.1-1.3l0.3,13.6h-1.8c-1.4-4.7-3-7.9-5-9.8s-5-2.8-9.2-2.8
				c-4.2,0-7.5,1.6-10,4.7c-2.5,3.1-3.8,8.2-3.8,15c0,13.1,4.7,19.6,14,19.6c2,0,3.9-0.4,5.8-1.2c1.9-0.8,3.5-2,4.7-3.5V73.3h-6.3
				V71.5z"/>
			<path class="st0" d="M106.3,88.6c0.7,0,1.2,0.1,1.4,0.3c0.2,0.2,0.4,0.7,0.4,1.4H92.3v-1.8c2.1,0,3.4-0.2,4.2-0.7
				c0.7-0.5,1.1-1.6,1.1-3.5V46.6h-5.2v-1.8h10.5v22.5c0.9-2.4,2.4-4.2,4.4-5.5c2.1-1.3,4.3-1.9,6.8-1.9s4.6,1,6.3,2.9
				c1.8,2,2.7,4.8,2.7,8.4v17.4h3.5c0.7,0,1.2,0.1,1.4,0.3c0.2,0.2,0.4,0.7,0.4,1.4h-15.4v-1.8c2,0,3.3-0.2,4-0.7
				c0.6-0.5,0.9-1.6,0.9-3.5V71.3c0-2.6-0.6-4.6-1.9-6.1c-1.3-1.4-2.9-2.1-4.9-2.1c-2,0-3.9,0.9-5.6,2.8c-1.7,1.8-2.6,4.4-2.6,7.7
				v15.1H106.3z"/>
			<path class="st0" d="M144.9,91.1c-4.2,0-7.6-1.4-10.5-4.1c-2.8-2.7-4.2-6.4-4.2-11s1.2-8.4,3.7-11.5s6.1-4.6,10.8-4.6
				c3.6,0,6.6,0.9,9.1,2.8c2.4,1.8,3.7,4.1,3.7,6.8c0,2.5-1.2,4.1-3.6,4.8c-2.1,0.6-5.2,0.9-9.3,0.8l-8.4-0.1
				c0.1,4.8,1,8.3,2.8,10.6c1.8,2.3,4.1,3.5,7.1,3.5c2,0,3.8-0.5,5.5-1.6c1.6-1,2.9-2.6,3.8-4.5l1.8,0.6c-1,2.4-2.5,4.2-4.7,5.5
				C150.3,90.4,147.8,91.1,144.9,91.1z M151.9,68.6c0-1.9-0.6-3.5-1.9-4.9s-3-2-5.3-2c-2.3,0-4.2,1-5.9,2.9
				c-1.6,1.9-2.5,4.7-2.7,8.4l7.4,0.2c3,0.1,5.1-0.2,6.4-0.8C151.3,71.8,151.9,70.5,151.9,68.6z"/>
			<path class="st0" d="M173.5,88.6c0.7,0,1.2,0.1,1.4,0.3c0.2,0.2,0.3,0.7,0.3,1.4h-15.4v-1.8c2.1,0,3.4-0.2,4.2-0.7
				c0.7-0.5,1.1-1.6,1.1-3.5v-22h-5.2v-1.8H170l0.3,7c1-2.5,2.5-4.4,4.4-5.7c2-1.3,4.2-2,6.6-2s4.6,1,6.4,3c1.9,2,2.8,4.8,2.8,8.3
				v17.4h3.5c0.7,0,1.2,0.1,1.4,0.3c0.2,0.2,0.3,0.7,0.3,1.4H180v-1.8c2.1,0,3.4-0.2,4.2-0.7c0.7-0.5,1.1-1.6,1.1-3.5V70.6
				c0-2.5-0.6-4.4-1.8-5.7c-1.2-1.3-2.8-2-4.8-2s-3.8,0.9-5.6,2.8c-1.7,1.9-2.6,4.5-2.7,7.7v15.1H173.5z"/>
			<path class="st0" d="M195.7,62.4v-1.8h4.9V54l5.2-1.5v8.1h10.9v1.8h-10.9v21.3c0,3.6,1.3,5.4,3.9,5.4c1.1,0,2.1-0.5,3-1.5
				c0.9-1,1.6-2.6,2.1-4.8l1.9,0.3c-1,5.4-3.7,8-8.1,8c-5.4,0-8-3-8-9V62.4H195.7z"/>
			<path class="st0" d="M233.2,88.6c0.7,0,1.2,0.1,1.4,0.3c0.2,0.2,0.3,0.7,0.3,1.4h-16v-1.8c2.1,0,3.4-0.2,4.2-0.7
				c0.7-0.5,1.1-1.6,1.1-3.5V46.6H219v-1.8h10.5v43.8H233.2z"/>
			<path class="st0" d="M251.8,91.1c-4.2,0-7.6-1.4-10.5-4.1c-2.8-2.7-4.2-6.4-4.2-11s1.2-8.4,3.7-11.5s6.1-4.6,10.8-4.6
				c3.6,0,6.6,0.9,9.1,2.8c2.4,1.8,3.7,4.1,3.7,6.8c0,2.5-1.2,4.1-3.6,4.8c-2.1,0.6-5.2,0.9-9.3,0.8L243,75c0.1,4.8,1,8.3,2.8,10.6
				c1.8,2.3,4.1,3.5,7.1,3.5c2,0,3.8-0.5,5.5-1.6c1.6-1,2.9-2.6,3.8-4.5l1.8,0.6c-1,2.4-2.5,4.2-4.7,5.5
				C257.1,90.4,254.6,91.1,251.8,91.1z M258.8,68.6c0-1.9-0.6-3.5-1.9-4.9s-3-2-5.3-2c-2.3,0-4.2,1-5.9,2.9
				c-1.6,1.9-2.5,4.7-2.7,8.4l7.4,0.2c3,0.1,5.1-0.2,6.4-0.8C258.1,71.8,258.8,70.5,258.8,68.6z"/>
			<path class="st0" d="M280.3,88.6c0.7,0,1.2,0.1,1.4,0.4c0.2,0.3,0.3,0.7,0.3,1.4h-15.4v-1.8c2.1,0,3.4-0.2,4.2-0.7
				c0.7-0.5,1.1-1.6,1.1-3.5v-22h-5.2v-1.8h10.2l0.3,7c1-2.5,2.4-4.4,4.3-5.7c1.9-1.3,3.8-2,5.8-2s3.7,0.7,5.2,2
				c1.5,1.3,2.5,3.2,3.1,5.6c1-2.5,2.4-4.4,4.2-5.7c1.8-1.3,3.8-1.9,6.2-1.9c2.3,0,4.4,1,6.2,3c1.8,2,2.7,4.8,2.7,8.3v17.4h3.6
				c0.7,0,1.2,0.1,1.4,0.3c0.2,0.2,0.4,0.7,0.4,1.4h-15.5v-1.8c2,0,3.3-0.2,4-0.7c0.6-0.5,0.9-1.6,0.9-3.5V70.6
				c0-2.5-0.5-4.4-1.6-5.7c-1.1-1.3-2.5-2-4.1-2s-3.2,0.7-4.7,2.1c-1.5,1.4-2.5,3.3-3,5.7v17.9h3.2c0.7,0,1.2,0.1,1.4,0.3
				c0.2,0.2,0.4,0.7,0.4,1.4h-15.1v-1.8c2,0,3.3-0.2,4-0.7c0.6-0.5,0.9-1.6,0.9-3.5V70.6c0-2.5-0.5-4.4-1.5-5.7c-1-1.3-2.4-2-4.1-2
				c-1.7,0-3.4,1-5.1,2.9c-1.7,1.9-2.6,4.5-2.7,7.7v15.1H280.3z"/>
			<path class="st0" d="M336.6,91.1c-4.2,0-7.6-1.4-10.5-4.1c-2.8-2.7-4.2-6.4-4.2-11s1.2-8.4,3.7-11.5s6.1-4.6,10.8-4.6
				c3.6,0,6.6,0.9,9.1,2.8c2.4,1.8,3.7,4.1,3.7,6.8c0,2.5-1.2,4.1-3.6,4.8c-2.1,0.6-5.2,0.9-9.3,0.8l-8.4-0.1
				c0.1,4.8,1,8.3,2.8,10.6c1.8,2.3,4.1,3.5,7.1,3.5c2,0,3.8-0.5,5.5-1.6c1.6-1,2.9-2.6,3.8-4.5l1.8,0.6c-1,2.4-2.5,4.2-4.7,5.5
				C341.9,90.4,339.4,91.1,336.6,91.1z M343.6,68.6c0-1.9-0.6-3.5-1.9-4.9s-3-2-5.3-2c-2.3,0-4.2,1-5.9,2.9
				c-1.6,1.9-2.5,4.7-2.7,8.4l7.4,0.2c3,0.1,5.1-0.2,6.4-0.8C342.9,71.8,343.6,70.5,343.6,68.6z"/>
			<path class="st0" d="M365.1,88.6c0.7,0,1.2,0.1,1.4,0.3c0.2,0.2,0.3,0.7,0.3,1.4h-15.4v-1.8c2.1,0,3.4-0.2,4.2-0.7
				c0.7-0.5,1.1-1.6,1.1-3.5v-22h-5.2v-1.8h10.2l0.3,7c1-2.5,2.5-4.4,4.4-5.7c2-1.3,4.2-2,6.6-2s4.6,1,6.4,3c1.9,2,2.8,4.8,2.8,8.3
				v17.4h3.5c0.7,0,1.2,0.1,1.4,0.3c0.2,0.2,0.3,0.7,0.3,1.4h-15.8v-1.8c2.1,0,3.4-0.2,4.2-0.7c0.7-0.5,1.1-1.6,1.1-3.5V70.6
				c0-2.5-0.6-4.4-1.8-5.7c-1.2-1.3-2.8-2-4.8-2s-3.8,0.9-5.6,2.8c-1.7,1.9-2.6,4.5-2.7,7.7v15.1H365.1z"/>
		</g>
	</g>
	<rect x="23.5" y="26.2" class="st1" width="387.9" height="87.5"/>
</g>
<script>
	function start(){
		setTimeout(stroke,300);
	}
		var b = document.querySelectorAll(".st0");
		var c = document.querySelectorAll(".st1");
	function stroke(){
		c[0].style.strokeWidth = "3";
		setTimeout(fill,700);
	}
	function fill(){
		b[0].style.fill = "white";
		b[1].style.fill = "white";
		b[2].style.fill = "white";
		b[3].style.fill = "white";
		b[4].style.fill = "white";
		setTimeout(fill2,400);
	}
	function fill2(){
		b[5].style.fill = "white";
		b[6].style.fill = "white";
		b[7].style.fill = "white";
		b[8].style.fill = "white";
		b[9].style.fill = "white";
	}
	start();
</script>
</svg>
